<svg xmlns="http://www.w3.org/2000/svg" viewBox="0 0 500 500">
  <!-- Definitions -->
  <defs>
    <linearGradient id="bgGradient" x1="0%" y1="0%" x2="100%" y2="100%">
      <stop offset="0%" style="stop-color:#0a0a0a" />
      <stop offset="100%" style="stop-color:#1a1a1a" />
    </linearGradient>
    <linearGradient id="circuitGradient" x1="0%" y1="0%" x2="100%" y2="100%">
      <stop offset="0%" style="stop-color:#00E676" />
      <stop offset="100%" style="stop-color:#00B0FF" />
    </linearGradient>
    <filter id="glow" x="-20%" y="-20%" width="140%" height="140%">
      <feGaussianBlur stdDeviation="3" result="blur" />
      <feComposite in="SourceGraphic" in2="blur" operator="over" />
    </filter>
    <filter id="softShadow">
      <feDropShadow dx="0" dy="0" stdDeviation="8" flood-color="#00E676" flood-opacity="0.3"/>
    </filter>
  </defs>
  
  <!-- Main Background -->
  <circle cx="250" cy="250" r="240" fill="url(#bgGradient)" />
  
  <!-- Tech Circuit Ring -->
  <g transform="translate(250, 250)">
    <circle cx="0" cy="0" r="210" fill="none" stroke="url(#circuitGradient)" stroke-width="2" 
            stroke-dasharray="1,8" opacity="0.5" />
    <circle cx="0" cy="0" r="220" fill="none" stroke="url(#circuitGradient)" stroke-width="1" 
            stroke-dasharray="1,15" opacity="0.3" />
    <circle cx="0" cy="0" r="200" fill="none" stroke="url(#circuitGradient)" stroke-width="1.5" 
            stroke-dasharray="10,5" opacity="0.4" />
  </g>
  
  <!-- Neural Network Elements -->
  <g transform="translate(250, 250)">
    <!-- Outer Ring Nodes -->
    <g id="outerNodes">
      <circle cx="0" cy="-170" r="8" fill="#00E676" filter="url(#glow)" />
      <circle cx="120" cy="-120" r="8" fill="#00E676" filter="url(#glow)" />
      <circle cx="170" cy="0" r="8" fill="#00E676" filter="url(#glow)" />
      <circle cx="120" cy="120" r="8" fill="#00E676" filter="url(#glow)" />
      <circle cx="0" cy="170" r="8" fill="#00E676" filter="url(#glow)" />
      <circle cx="-120" cy="120" r="8" fill="#00E676" filter="url(#glow)" />
      <circle cx="-170" cy="0" r="8" fill="#00E676" filter="url(#glow)" />
      <circle cx="-120" cy="-120" r="8" fill="#00E676" filter="url(#glow)" />
    </g>
    
    <!-- Middle Ring Nodes -->
    <g id="midNodes">
      <circle cx="0" cy="-100" r="6" fill="#00B0FF" filter="url(#glow)" />
      <circle cx="70" cy="-70" r="6" fill="#00B0FF" filter="url(#glow)" />
      <circle cx="100" cy="0" r="6" fill="#00B0FF" filter="url(#glow)" />
      <circle cx="70" cy="70" r="6" fill="#00B0FF" filter="url(#glow)" />
      <circle cx="0" cy="100" r="6" fill="#00B0FF" filter="url(#glow)" />
      <circle cx="-70" cy="70" r="6" fill="#00B0FF" filter="url(#glow)" />
      <circle cx="-100" cy="0" r="6" fill="#00B0FF" filter="url(#glow)" />
      <circle cx="-70" cy="-70" r="6" fill="#00B0FF" filter="url(#glow)" />
    </g>
    
    <!-- Center Node -->
    <circle cx="0" cy="0" r="20" fill="#FFFFFF" filter="url(#softShadow)" />
    
    <!-- Connection Lines -->
    <g stroke="url(#circuitGradient)" stroke-width="1.5" fill="none" opacity="0.7">
      <!-- Outer to Mid Connections -->
      <path d="M0,-170 L0,-100" />
      <path d="M120,-120 L70,-70" />
      <path d="M170,0 L100,0" />
      <path d="M120,120 L70,70" />
      <path d="M0,170 L0,100" />
      <path d="M-120,120 L-70,70" />
      <path d="M-170,0 L-100,0" />
      <path d="M-120,-120 L-70,-70" />
      
      <!-- Mid to Center Connections -->
      <path d="M0,-100 L0,0" />
      <path d="M70,-70 L0,0" />
      <path d="M100,0 L0,0" />
      <path d="M70,70 L0,0" />
      <path d="M0,100 L0,0" />
      <path d="M-70,70 L0,0" />
      <path d="M-100,0 L0,0" />
      <path d="M-70,-70 L0,0" />
      
      <!-- Cross Connections -->
      <path d="M0,-170 C-50,-120 -50,-80 -100,0" />
      <path d="M170,0 C120,50 80,50 0,100" />
      <path d="M-170,0 C-120,-50 -80,-50 0,-100" />
      <path d="M0,170 C50,120 50,80 100,0" />
    </g>
  </g>
  
  <!-- Animated Data Flow (Static in SVG) -->
  <g opacity="0.8">
    <circle cx="250" cy="80" r="4" fill="#FFFFFF" />
    <circle cx="370" cy="130" r="4" fill="#FFFFFF" />
    <circle cx="420" cy="250" r="4" fill="#FFFFFF" />
    <circle cx="370" cy="370" r="4" fill="#FFFFFF" />
    <circle cx="250" cy="420" r="4" fill="#FFFFFF" />
    <circle cx="130" cy="370" r="4" fill="#FFFFFF" />
    <circle cx="80" cy="250" r="4" fill="#FFFFFF" />
    <circle cx="130" cy="130" r="4" fill="#FFFFFF" />
  </g>
  
  <!-- Center Element -->
  <g transform="translate(250, 250)">
    <!-- Leaf-AI Fusion Symbol -->
    <path d="M0,-15 C20,0 20,0 0,15 C-20,0 -20,0 0,-15 Z" fill="#00E676" />
    <path d="M-15,0 C0,-20 0,-20 15,0 C0,20 0,20 -15,0 Z" fill="#00B0FF" />
    
    <!-- Circuit Detail -->
    <path d="M-10,-10 L10,10 M-10,10 L10,-10" stroke="#FFFFFF" stroke-width="2" />
  </g>
</svg> 